<?xml version="1.0" standalone="no"?>
<!DOCTYPE svg PUBLIC "-//W3C//DTD SVG 20010904//EN"
 "http://www.w3.org/TR/2001/REC-SVG-20010904/DTD/svg10.dtd">
<svg version="1.0" xmlns="http://www.w3.org/2000/svg"
 width="850.000000pt" height="850.000000pt" viewBox="0 0 850.000000 850.000000"
 preserveAspectRatio="xMidYMid meet">
<metadata>
Created by potrace 1.11, written by Peter Selinger 2001-2013
</metadata>
<g transform="translate(0.000000,850.000000) scale(0.100000,-0.100000)"
fill="#000000" stroke="none">
<path d="M0 4961 c0 -1742 3 -2190 13 -2194 10 -4 10 -6 0 -6 -10 -1 -13 -150
-13 -711 l0 -710 4250 0 4250 0 0 2905 0 2905 -4250 0 -4250 0 0 -2189z m5908
302 c-240 -2 -636 -2 -880 0 -244 1 -47 2 437 2 484 0 683 -1 443 -2z m1179
-9 c-3 -3 -12 -4 -19 -1 -8 3 -5 6 6 6 11 1 17 -2 13 -5z m70 0 c-3 -3 -12 -4
-19 -1 -8 3 -5 6 6 6 11 1 17 -2 13 -5z m222 -139 c0 -74 2 -139 6 -146 5 -7
3 -10 -5 -7 -9 3 -12 43 -14 150 0 80 3 144 7 141 4 -3 7 -65 6 -138z m-2839
130 c0 -2 -10 -9 -22 -15 -22 -11 -22 -10 -4 4 21 17 26 19 26 11z m-50 -30
c0 -2 -10 -9 -22 -15 -22 -11 -22 -10 -4 4 21 17 26 19 26 11z m-90 -49 c0 -2
-16 -13 -36 -25 l-35 -21 -1667 2 -1667 3 1667 2 c1646 3 1668 3 1700 23 35
21 38 22 38 16z m293 -13 c-7 -2 -19 -2 -25 0 -7 3 -2 5 12 5 14 0 19 -2 13
-5z m74 -9 c-3 -3 -12 -4 -19 -1 -8 3 -5 6 6 6 11 1 17 -2 13 -5z m1931 -51
c-15 -2 -42 -2 -60 0 -18 2 -6 4 27 4 33 0 48 -2 33 -4z m122 -3 c0 -5 -2 -10
-4 -10 -3 0 -8 5 -11 10 -3 6 -1 10 4 10 6 0 11 -4 11 -10z m-872 -7 c-16 -2
-40 -2 -55 0 -16 2 -3 4 27 4 30 0 43 -2 28 -4z m869 -185 c-3 -8 -6 -5 -6 6
-1 11 2 17 5 13 3 -3 4 -12 1 -19z m0 -75 c-3 -10 -5 -4 -5 12 0 17 2 24 5 18
2 -7 2 -21 0 -30z m-5690 -20 c-3 -10 -5 -2 -5 17 0 19 2 27 5 18 2 -10 2 -26
0 -35z m-159 -29 c-10 -10 -28 6 -28 24 0 15 1 15 17 -1 9 -9 14 -19 11 -23z
m6399 -26 c-3 -7 -5 -2 -5 12 0 14 2 19 5 13 2 -7 2 -19 0 -25z m-3214 5 c-7
-2 -19 -2 -25 0 -7 3 -2 5 12 5 14 0 19 -2 13 -5z m-1664 -55 c-2 -31 -2 -31
-6 -6 l-4 28 -462 3 -462 2 468 3 467 2 -1 -32z m-2 -110 c-2 -13 -4 -3 -4 22
0 25 2 35 4 23 2 -13 2 -33 0 -45z m0 -105 c-2 -16 -4 -3 -4 27 0 30 2 43 4
28 2 -16 2 -40 0 -55z m-1527 -843 l-6 -885 -2 841 c-2 692 2 957 12 932 1 -2
-1 -401 -4 -888z m4721 717 c-6 -8 -8 -17 -4 -20 3 -4 0 -15 -9 -24 -15 -18
-38 -89 -43 -132 -1 -13 -8 -27 -14 -31 -9 -5 -7 -25 10 -76 12 -38 25 -71 28
-74 3 -3 15 -22 26 -42 12 -23 31 -42 50 -49 23 -9 26 -13 13 -16 -37 -9 -17
-23 25 -16 36 5 40 4 30 -9 -11 -12 -7 -17 23 -31 20 -10 34 -23 31 -30 -10
-27 -106 23 -165 87 -105 116 -120 291 -36 424 19 28 37 52 40 52 4 0 1 -6 -5
-13z m-354 -64 c-3 -10 -5 -4 -5 12 0 17 2 24 5 18 2 -7 2 -21 0 -30z m900 2
c15 -32 0 -32 -21 0 -12 18 -13 25 -4 25 7 0 18 -11 25 -25z m-467 -9 c0 -3
-4 -8 -10 -11 -5 -3 -10 -1 -10 4 0 6 5 11 10 11 6 0 10 -2 10 -4z m504 -106
c7 -33 6 -34 -9 -16 -8 11 -15 30 -15 42 0 12 -3 31 -6 41 -3 10 1 7 9 -7 8
-14 18 -41 21 -60z m-214 -20 c0 -5 -4 -10 -10 -10 -5 0 -10 5 -10 10 0 6 5
10 10 10 6 0 10 -4 10 -10z m-144 -46 c7 -27 -7 -50 -25 -40 -12 8 -15 49 -4
59 13 13 23 7 29 -19z m92 -18 c-4 -25 -27 -28 -41 -4 -8 12 -7 21 2 32 18 21
43 2 39 -28z m62 35 c0 -5 -7 -12 -16 -15 -14 -5 -15 -4 -4 9 14 17 20 19 20
6z m200 -99 c-23 -91 -110 -190 -196 -222 -44 -17 -51 4 -10 30 20 12 34 25
31 30 -3 5 11 7 30 5 19 -2 38 1 41 6 3 5 -2 9 -12 9 -12 0 -7 11 21 41 39 43
75 117 75 153 0 12 6 28 13 35 18 18 22 -30 7 -87z m-350 8 c8 -5 13 -10 10
-11 -3 0 -15 -2 -27 -5 -16 -3 -23 1 -23 11 0 17 18 19 40 5z m86 -5 c4 -9 3
-41 -1 -73 l-8 -57 -15 35 c-14 34 -22 87 -15 103 7 13 33 8 39 -8z m-92 -40
c6 -15 -2 -86 -10 -94 -2 -2 -4 7 -4 20 0 14 -5 30 -11 36 -12 12 -3 53 11 53
4 0 11 -7 14 -15z m156 -15 c0 -5 -2 -10 -4 -10 -3 0 -8 5 -11 10 -3 6 -1 10
4 10 6 0 11 -4 11 -10z m44 -59 c-6 -7 -34 28 -34 42 0 6 9 0 20 -13 11 -13
17 -26 14 -29z m-199 -89 c0 -31 -19 -28 -23 4 -3 18 0 25 10 22 7 -3 13 -14
13 -26z m85 -2 c0 -16 -4 -30 -9 -30 -12 0 -24 37 -16 50 12 20 25 10 25 -20z
m-1097 -65 c-3 -9 -8 -14 -10 -11 -3 3 -2 9 2 15 9 16 15 13 8 -4z m2240 -32
c-57 -2 -149 -2 -205 0 -57 1 -11 3 102 3 113 0 159 -2 103 -3z m-593 -49 c0
-2 -15 -4 -32 -4 -23 0 -29 3 -19 9 12 8 51 4 51 -5z m-553 -1 c-20 -2 -52 -2
-70 0 -17 2 0 4 38 4 39 0 53 -2 32 -4z m630 1 c-3 -3 -12 -4 -19 -1 -8 3 -5
6 6 6 11 1 17 -2 13 -5z m171 -1 c-26 -2 -71 -2 -100 0 -29 2 -8 3 47 3 55 0
79 -1 53 -3z m107 -83 l-319 -5 -8 -25 c-7 -25 -8 -25 -4 2 l3 28 -261 3
c-144 1 2 2 324 2 432 0 502 -1 265 -5z m-1715 -40 c0 -11 -2 -20 -4 -20 -2 0
-6 9 -9 20 -3 11 -1 20 4 20 5 0 9 -9 9 -20z m2330 -6 c0 -2 -9 0 -20 6 -11 6
-20 13 -20 16 0 2 9 0 20 -6 11 -6 20 -13 20 -16z m70 -40 c0 -2 -9 0 -20 6
-11 6 -20 13 -20 16 0 2 9 0 20 -6 11 -6 20 -13 20 -16z m-853 -56 c-3 -7 -5
-2 -5 12 0 14 2 19 5 13 2 -7 2 -19 0 -25z m1043 -54 c0 -2 -9 0 -20 6 -11 6
-20 13 -20 16 0 2 9 0 20 -6 11 -6 20 -13 20 -16z m-119 -44 c86 -41 119 -62
59 -38 -48 20 -157 77 -148 78 3 0 43 -18 89 -40z m-4731 10 c0 -5 -5 -10 -11
-10 -5 0 -7 5 -4 10 3 6 8 10 11 10 2 0 4 -4 4 -10z m1373 3 c-7 -2 -21 -2
-30 0 -10 3 -4 5 12 5 17 0 24 -2 18 -5z m330 0 c-29 -2 -78 -2 -110 0 -32 2
-8 3 52 3 61 0 87 -1 58 -3z m160 0 c-7 -2 -21 -2 -30 0 -10 3 -4 5 12 5 17 0
24 -2 18 -5z m3120 -56 c-3 -4 -6 -7 -7 -5 -1 2 -8 12 -16 22 -14 18 -14 18 7
6 12 -8 19 -18 16 -23z m-77 -54 c-4 -4 -76 37 -76 44 0 2 18 -6 40 -18 22
-12 38 -24 36 -26z m-4706 -493 c0 -5 -4 -10 -10 -10 -5 0 -10 5 -10 10 0 6 5
10 10 10 6 0 10 -4 10 -10z m4830 0 c0 -5 -4 -10 -10 -10 -5 0 -10 5 -10 10 0
6 5 10 10 10 6 0 10 -4 10 -10z"/>
</g>
</svg>
